<svg width="821" height="1217" viewBox="0 0 821 1217" fill="none" xmlns="http://www.w3.org/2000/svg">
<rect width="821" height="1217" fill="#F5F5F5"/>
<path d="M723.707 1040.78C731.364 1030.89 741.155 1022.83 752.009 1017.49C761.254 1012.93 771.622 1010.2 782.208 1009.48L781.092 1005.54C770.139 1006.43 759.71 1009.23 750.24 1013.89C738.843 1019.5 728.579 1027.95 720.541 1038.32C712.502 1048.69 706.914 1060.75 704.341 1073.2C703.611 1076.71 703.134 1080.23 702.885 1083.74C688.39 1094.76 677.263 1109.24 667.395 1123.4C664.988 1126.84 662.589 1130.39 660.278 1133.8C651.796 1146.27 643.036 1159.15 632.577 1170.2C620.778 1182.67 606.227 1193.12 590.493 1200.42C574.32 1207.93 557.442 1212.06 540.32 1212.7C533.295 1212.94 526.246 1212.59 519.344 1211.66L520.524 1215.83C527.175 1216.61 533.796 1216.91 540.467 1216.66C550.899 1216.28 561.261 1214.63 571.402 1211.76C578.432 1209.77 585.375 1207.18 592.179 1204.03C608.352 1196.53 623.334 1185.77 635.486 1172.93C646.151 1161.65 655.018 1148.64 663.569 1136.05C665.88 1132.63 668.284 1129.11 670.678 1125.69C679.767 1112.66 689.891 1099.39 702.708 1088.98C702.686 1102.31 706.142 1115.03 712.803 1125.36C717.735 1133.04 724.602 1139.41 732.653 1143.82C741 1148.39 750.06 1150.49 758.872 1149.88C767.891 1149.28 776.77 1145.54 783.913 1139.41C791.235 1133.1 795.962 1124.81 797.26 1116.06C798.694 1106.4 795.995 1096.21 789.657 1087.38C783.663 1079.03 774.766 1072.52 765.223 1069.52C755.978 1066.61 745.941 1066.26 735.445 1068.46C725.945 1070.45 716.38 1074.55 707.782 1080.3C707.592 1080.44 707.397 1080.55 707.208 1080.69C707.454 1078.48 707.821 1076.26 708.276 1074.06C710.716 1062.16 716.051 1050.67 723.707 1040.78ZM709.982 1083.6C718.162 1078.13 727.25 1074.25 736.259 1072.36C746.091 1070.3 755.434 1070.63 764.019 1073.32C772.74 1076.06 780.903 1082.03 786.391 1089.69C792.117 1097.68 794.566 1106.84 793.294 1115.46C790.948 1131.36 775.689 1144.73 758.574 1145.9C750.536 1146.45 742.227 1144.51 734.545 1140.31C727.08 1136.22 720.721 1130.32 716.137 1123.22C709.374 1112.74 706.142 1099.57 706.763 1085.86C707.823 1085.06 708.9 1084.32 709.982 1083.6Z" fill="#ECECEC"/>
<path d="M766.309 171.908L718.442 152.87L723.33 167.369L753.379 171.536L725.135 172.723L725.139 172.736L725.133 172.72L715.516 180.495L727.875 180.851L731.347 191.151L766.309 171.908Z" fill="#ECECEC"/>
<path fill-rule="evenodd" clip-rule="evenodd" d="M420.121 9.32436C494.246 -5.1845 567.889 -2.19839 637.333 27.5132C710.564 58.8448 786.161 101.62 811.971 176.977C837.659 251.972 802.908 331.171 765.229 400.914C729.766 466.555 681.103 527.009 610.247 550.363C540.532 573.342 465.662 554.829 400.436 521.152C337.336 488.571 296.226 432.393 261.639 370.368C216.624 289.64 138.424 202.529 175.575 117.896C212.842 32.9951 329.131 27.1344 420.121 9.32436Z" fill="#4C40F7"/>
<path fill-rule="evenodd" clip-rule="evenodd" d="M191.308 182.991C258.417 156.201 330.362 115.09 395.694 139.636C464.93 165.65 497.707 236.516 512.928 303.831C527.81 369.649 520.352 441.428 476.845 498.539C435.328 553.036 364.32 580.101 293.711 591.589C229.978 601.959 167.937 587.114 114.179 557.546C61.4279 528.532 14.5489 487.489 2.92173 431.649C-8.39124 377.317 19.7998 322.507 55.4429 275.461C88.8006 231.431 137.792 204.354 191.308 182.991Z" fill="#FFCC00"/>
<rect x="557" y="409" width="98" height="98" rx="36" fill="#FE9602"/>
<path d="M624.682 450.476C624.446 449.911 623.974 449.439 623.408 449.203L606.904 442.177C606.291 441.941 605.63 441.941 605.017 442.177L588.512 449.25C587.286 449.769 586.72 451.184 587.239 452.41C587.475 452.976 587.947 453.447 588.512 453.683L605.017 460.709C605.63 460.945 606.291 460.945 606.904 460.709L623.408 453.636C624.635 453.117 625.2 451.703 624.682 450.476Z" fill="white"/>
<path d="M624.965 464.717C624.541 463.443 623.173 462.736 621.9 463.16C621.758 463.208 621.617 463.255 621.475 463.349L605.914 469.951L590.352 463.349C589.126 462.83 587.711 463.396 587.192 464.622C586.674 465.848 587.239 467.263 588.466 467.782L604.97 474.808C605.583 475.044 606.244 475.044 606.857 474.808L623.362 467.735C624.682 467.357 625.389 465.99 624.965 464.717Z" fill="white"/>
<path d="M624.682 457.597C624.163 456.323 622.748 455.758 621.522 456.276L605.96 462.925L590.399 456.276C589.173 455.758 587.758 456.323 587.239 457.55C586.72 458.776 587.286 460.19 588.512 460.709L605.017 467.783C605.63 468.018 606.291 468.018 606.904 467.783L623.409 460.756C624.635 460.237 625.2 458.823 624.682 457.597Z" fill="white"/>
<path d="M651.707 235.781C659.364 225.893 669.155 217.829 680.009 212.494C689.254 207.926 699.622 205.198 710.208 204.483L709.092 200.545C698.139 201.426 687.71 204.233 678.24 208.886C666.843 214.5 656.579 222.946 648.541 233.316C640.502 243.685 634.914 255.748 632.341 268.202C631.611 271.708 631.134 275.225 630.885 278.741C616.39 289.756 605.263 304.237 595.395 318.403C592.988 321.845 590.589 325.388 588.278 328.803C579.796 341.269 571.036 354.147 560.577 365.201C548.778 377.673 534.227 388.123 518.493 395.421C502.32 402.926 485.442 407.061 468.32 407.696C461.295 407.942 454.246 407.593 447.344 406.662L448.524 410.832C455.175 411.605 461.796 411.909 468.467 411.66C478.899 411.28 489.261 409.632 499.402 406.761C506.432 404.771 513.375 402.182 520.179 399.031C536.352 391.526 551.334 380.768 563.486 367.926C574.151 356.647 583.018 343.636 591.569 331.046C593.88 327.632 596.284 324.108 598.678 320.691C607.767 307.658 617.891 294.394 630.708 283.979C630.686 297.309 634.142 310.027 640.803 320.364C645.735 328.037 652.602 334.414 660.653 338.817C669 343.385 678.06 345.489 686.872 344.883C695.891 344.28 704.77 340.542 711.913 334.41C719.235 328.104 723.962 319.813 725.26 311.061C726.694 301.4 723.995 291.207 717.657 282.376C711.663 274.029 702.766 267.52 693.223 264.515C683.978 261.612 673.941 261.258 663.445 263.462C653.945 265.446 644.38 269.545 635.782 275.3C635.592 275.437 635.397 275.554 635.208 275.691C635.454 273.484 635.821 271.263 636.276 269.059C638.716 257.161 644.051 245.669 651.707 235.781ZM637.982 278.599C646.162 273.129 655.25 269.248 664.259 267.362C674.091 265.304 683.434 265.626 692.019 268.322C700.74 271.061 708.903 277.031 714.391 284.691C720.117 292.678 722.566 301.842 721.294 310.462C718.948 326.358 703.689 339.727 686.574 340.9C678.536 341.453 670.227 339.51 662.545 335.314C655.08 331.222 648.721 325.323 644.137 318.217C637.374 307.742 634.142 294.566 634.763 280.86C635.823 280.061 636.9 279.321 637.982 278.599Z" fill="#ECECEC"/>
<path d="M748.309 199.908L700.442 180.87L705.33 195.369L735.379 199.536L707.135 200.723L707.139 200.736L707.133 200.72L697.516 208.495L709.875 208.851L713.347 219.151L748.309 199.908Z" fill="#ECECEC"/>
<mask id="mask0_0_1" style="mask-type:alpha" maskUnits="userSpaceOnUse" x="120" y="84" width="529" height="498">
<path fill-rule="evenodd" clip-rule="evenodd" d="M414.703 84.6578C480.794 79.117 546.407 109.026 591.711 157.465C635.701 204.5 651.82 270.166 648.347 334.473C645.065 395.229 615.418 449.173 573.569 493.34C530.317 538.988 477.527 583.825 414.703 581.059C353.373 578.358 316.318 519.335 269.236 479.94C213.853 433.598 121.026 406.68 120.008 334.473C118.991 262.263 209.991 231.546 265.078 184.848C312.676 144.499 352.522 89.8708 414.703 84.6578Z" fill="#C4C4C4"/>
</mask>
<g mask="url(#mask0_0_1)">
<path d="M251.53 313.971C257.871 303.579 266.359 294.661 276.425 287.815C286.492 280.969 297.905 276.351 309.9 274.272C321.895 272.193 334.196 272.699 345.979 275.758C357.762 278.817 368.757 284.358 378.226 292.009L351.525 325.054C346.762 321.205 341.232 318.418 335.304 316.88C329.377 315.341 323.19 315.086 317.156 316.132C311.122 317.178 305.381 319.5 300.318 322.944C295.254 326.388 290.984 330.874 287.795 336.101L251.53 313.971Z" fill="#FE9602"/>
<g filter="url(#filter0_d_0_1)">
<circle cx="311.006" cy="275.193" r="27.8753" fill="white"/>
</g>
<path d="M300.412 277.718C301.18 277.054 301.784 276.51 302.224 276.086C302.672 275.654 303.044 275.206 303.34 274.742C303.636 274.278 303.784 273.814 303.784 273.35C303.784 272.87 303.668 272.494 303.436 272.222C303.212 271.95 302.856 271.814 302.368 271.814C301.896 271.814 301.528 271.966 301.264 272.27C301.008 272.566 300.872 272.966 300.856 273.47H299.536C299.56 272.558 299.832 271.862 300.352 271.382C300.88 270.894 301.548 270.65 302.356 270.65C303.228 270.65 303.908 270.89 304.396 271.37C304.892 271.85 305.14 272.49 305.14 273.29C305.14 273.866 304.992 274.422 304.696 274.958C304.408 275.486 304.06 275.962 303.652 276.386C303.252 276.802 302.74 277.286 302.116 277.838L301.576 278.318H305.38V279.458H299.548V278.462L300.412 277.718ZM306.582 275.09C306.582 273.706 306.814 272.626 307.278 271.85C307.75 271.066 308.558 270.674 309.702 270.674C310.846 270.674 311.65 271.066 312.114 271.85C312.586 272.626 312.822 273.706 312.822 275.09C312.822 276.49 312.586 277.586 312.114 278.378C311.65 279.162 310.846 279.554 309.702 279.554C308.558 279.554 307.75 279.162 307.278 278.378C306.814 277.586 306.582 276.49 306.582 275.09ZM311.478 275.09C311.478 274.442 311.434 273.894 311.346 273.446C311.266 272.998 311.098 272.634 310.842 272.354C310.586 272.066 310.206 271.922 309.702 271.922C309.198 271.922 308.818 272.066 308.562 272.354C308.306 272.634 308.134 272.998 308.046 273.446C307.966 273.894 307.926 274.442 307.926 275.09C307.926 275.762 307.966 276.326 308.046 276.782C308.126 277.238 308.294 277.606 308.55 277.886C308.814 278.166 309.198 278.306 309.702 278.306C310.206 278.306 310.586 278.166 310.842 277.886C311.106 277.606 311.278 277.238 311.358 276.782C311.438 276.326 311.478 275.762 311.478 275.09ZM314.053 272.942C314.053 272.358 314.221 271.902 314.557 271.574C314.901 271.238 315.341 271.07 315.877 271.07C316.413 271.07 316.849 271.238 317.185 271.574C317.529 271.902 317.701 272.358 317.701 272.942C317.701 273.526 317.529 273.986 317.185 274.322C316.849 274.658 316.413 274.826 315.877 274.826C315.341 274.826 314.901 274.658 314.557 274.322C314.221 273.986 314.053 273.526 314.053 272.942ZM321.373 271.226L316.585 279.578H315.241L320.029 271.226H321.373ZM315.877 271.898C315.373 271.898 315.121 272.246 315.121 272.942C315.121 273.646 315.373 273.998 315.877 273.998C316.117 273.998 316.301 273.914 316.429 273.746C316.565 273.57 316.633 273.302 316.633 272.942C316.633 272.246 316.381 271.898 315.877 271.898ZM318.937 277.85C318.937 277.266 319.105 276.81 319.441 276.482C319.785 276.146 320.225 275.978 320.761 275.978C321.289 275.978 321.721 276.146 322.057 276.482C322.401 276.81 322.573 277.266 322.573 277.85C322.573 278.434 322.401 278.894 322.057 279.23C321.721 279.566 321.289 279.734 320.761 279.734C320.225 279.734 319.785 279.566 319.441 279.23C319.105 278.894 318.937 278.434 318.937 277.85ZM320.749 276.806C320.245 276.806 319.993 277.154 319.993 277.85C319.993 278.546 320.245 278.894 320.749 278.894C321.253 278.894 321.505 278.546 321.505 277.85C321.505 277.154 321.253 276.806 320.749 276.806Z" fill="#FE9602"/>
<path d="M366.714 285.338C377.133 291.635 386.087 300.084 392.977 310.121C399.867 320.157 404.533 331.55 406.664 343.536C408.796 355.522 408.342 367.825 405.334 379.622C402.326 391.418 396.833 402.436 389.223 411.938L356.063 385.38C359.891 380.601 362.654 375.058 364.167 369.125C365.68 363.191 365.908 357.002 364.836 350.973C363.764 344.944 361.417 339.213 357.951 334.164C354.486 329.116 349.982 324.865 344.741 321.698L366.714 285.338Z" fill="#FF2D59"/>
<g filter="url(#filter1_d_0_1)">
<circle cx="416.532" cy="350.135" r="27.8753" fill="white"/>
</g>
<path d="M405.938 352.661C406.706 351.997 407.31 351.453 407.75 351.029C408.198 350.597 408.57 350.149 408.866 349.685C409.162 349.221 409.31 348.757 409.31 348.293C409.31 347.813 409.194 347.437 408.962 347.165C408.738 346.893 408.382 346.757 407.894 346.757C407.422 346.757 407.054 346.909 406.79 347.213C406.534 347.509 406.398 347.909 406.382 348.413H405.062C405.086 347.501 405.358 346.805 405.878 346.325C406.406 345.837 407.074 345.593 407.882 345.593C408.754 345.593 409.434 345.833 409.922 346.313C410.418 346.793 410.666 347.433 410.666 348.233C410.666 348.809 410.518 349.365 410.222 349.901C409.934 350.429 409.586 350.905 409.178 351.329C408.778 351.745 408.266 352.229 407.642 352.781L407.102 353.261H410.906V354.401H405.074V353.405L405.938 352.661ZM412.108 350.033C412.108 348.649 412.34 347.569 412.804 346.793C413.276 346.009 414.084 345.617 415.228 345.617C416.372 345.617 417.176 346.009 417.64 346.793C418.112 347.569 418.348 348.649 418.348 350.033C418.348 351.433 418.112 352.529 417.64 353.321C417.176 354.105 416.372 354.497 415.228 354.497C414.084 354.497 413.276 354.105 412.804 353.321C412.34 352.529 412.108 351.433 412.108 350.033ZM417.004 350.033C417.004 349.385 416.96 348.837 416.872 348.389C416.792 347.941 416.624 347.577 416.368 347.297C416.112 347.009 415.732 346.865 415.228 346.865C414.724 346.865 414.344 347.009 414.088 347.297C413.832 347.577 413.66 347.941 413.572 348.389C413.492 348.837 413.452 349.385 413.452 350.033C413.452 350.705 413.492 351.269 413.572 351.725C413.652 352.181 413.82 352.549 414.076 352.829C414.34 353.109 414.724 353.249 415.228 353.249C415.732 353.249 416.112 353.109 416.368 352.829C416.632 352.549 416.804 352.181 416.884 351.725C416.964 351.269 417.004 350.705 417.004 350.033ZM419.579 347.885C419.579 347.301 419.747 346.845 420.083 346.517C420.427 346.181 420.867 346.013 421.403 346.013C421.939 346.013 422.375 346.181 422.711 346.517C423.055 346.845 423.227 347.301 423.227 347.885C423.227 348.469 423.055 348.929 422.711 349.265C422.375 349.601 421.939 349.769 421.403 349.769C420.867 349.769 420.427 349.601 420.083 349.265C419.747 348.929 419.579 348.469 419.579 347.885ZM426.899 346.169L422.111 354.521H420.767L425.555 346.169H426.899ZM421.403 346.841C420.899 346.841 420.647 347.189 420.647 347.885C420.647 348.589 420.899 348.941 421.403 348.941C421.643 348.941 421.827 348.857 421.955 348.689C422.091 348.513 422.159 348.245 422.159 347.885C422.159 347.189 421.907 346.841 421.403 346.841ZM424.463 352.793C424.463 352.209 424.631 351.753 424.967 351.425C425.311 351.089 425.751 350.921 426.287 350.921C426.815 350.921 427.247 351.089 427.583 351.425C427.927 351.753 428.099 352.209 428.099 352.793C428.099 353.377 427.927 353.837 427.583 354.173C427.247 354.509 426.815 354.677 426.287 354.677C425.751 354.677 425.311 354.509 424.967 354.173C424.631 353.837 424.463 353.377 424.463 352.793ZM426.275 351.749C425.771 351.749 425.519 352.097 425.519 352.793C425.519 353.489 425.771 353.837 426.275 353.837C426.779 353.837 427.031 353.489 427.031 352.793C427.031 352.097 426.779 351.749 426.275 351.749Z" fill="#FF2D59"/>
<path d="M402.042 394.483C396.966 405.422 389.632 415.164 380.523 423.068C371.414 430.972 360.735 436.858 349.189 440.342C337.642 443.825 325.49 444.825 313.529 443.277C301.569 441.73 290.071 437.669 279.792 431.361C269.513 425.054 260.684 416.643 253.887 406.681C247.09 396.718 242.477 385.431 240.353 373.559C238.228 361.688 238.639 349.501 241.56 337.8C244.48 326.098 249.844 315.148 257.297 305.667L290.696 331.924C286.947 336.693 284.249 342.201 282.78 348.087C281.311 353.973 281.104 360.103 282.172 366.075C283.241 372.047 285.561 377.725 288.98 382.736C292.4 387.747 296.84 391.978 302.011 395.15C307.182 398.323 312.965 400.366 318.982 401.145C324.998 401.923 331.111 401.42 336.919 399.668C342.727 397.916 348.098 394.955 352.68 390.979C357.263 387.003 360.952 382.103 363.505 376.6L402.042 394.483Z" fill="#4C40F7"/>
<g filter="url(#filter2_d_0_1)">
<circle cx="259.687" cy="430.78" r="27.8753" fill="white"/>
</g>
<path d="M252.654 428.446C252.566 428.078 252.406 427.802 252.174 427.618C251.942 427.434 251.618 427.342 251.202 427.342C250.57 427.342 250.098 427.586 249.786 428.074C249.474 428.554 249.31 429.354 249.294 430.474C249.502 430.122 249.806 429.85 250.206 429.658C250.606 429.466 251.038 429.37 251.502 429.37C252.03 429.37 252.494 429.486 252.894 429.718C253.302 429.942 253.618 430.27 253.842 430.702C254.074 431.134 254.19 431.65 254.19 432.25C254.19 432.81 254.078 433.31 253.854 433.75C253.638 434.19 253.314 434.538 252.882 434.794C252.45 435.042 251.93 435.166 251.322 435.166C250.498 435.166 249.85 434.986 249.378 434.626C248.914 434.258 248.586 433.742 248.394 433.078C248.21 432.414 248.118 431.586 248.118 430.594C248.118 427.666 249.15 426.202 251.214 426.202C252.014 426.202 252.642 426.418 253.098 426.85C253.562 427.282 253.834 427.814 253.914 428.446H252.654ZM251.202 430.522C250.714 430.522 250.298 430.67 249.954 430.966C249.618 431.254 249.45 431.674 249.45 432.226C249.45 432.778 249.606 433.218 249.918 433.546C250.238 433.866 250.682 434.026 251.25 434.026C251.754 434.026 252.15 433.87 252.438 433.558C252.734 433.246 252.882 432.83 252.882 432.31C252.882 431.766 252.738 431.334 252.45 431.014C252.17 430.686 251.754 430.522 251.202 430.522ZM255.649 430.678C255.649 429.294 255.881 428.214 256.345 427.438C256.817 426.654 257.625 426.262 258.769 426.262C259.913 426.262 260.717 426.654 261.181 427.438C261.653 428.214 261.889 429.294 261.889 430.678C261.889 432.078 261.653 433.174 261.181 433.966C260.717 434.75 259.913 435.142 258.769 435.142C257.625 435.142 256.817 434.75 256.345 433.966C255.881 433.174 255.649 432.078 255.649 430.678ZM260.545 430.678C260.545 430.03 260.501 429.482 260.413 429.034C260.333 428.586 260.165 428.222 259.909 427.942C259.653 427.654 259.273 427.51 258.769 427.51C258.265 427.51 257.885 427.654 257.629 427.942C257.373 428.222 257.201 428.586 257.113 429.034C257.033 429.482 256.993 430.03 256.993 430.678C256.993 431.35 257.033 431.914 257.113 432.37C257.193 432.826 257.361 433.194 257.617 433.474C257.881 433.754 258.265 433.894 258.769 433.894C259.273 433.894 259.653 433.754 259.909 433.474C260.173 433.194 260.345 432.826 260.425 432.37C260.505 431.914 260.545 431.35 260.545 430.678ZM263.12 428.53C263.12 427.946 263.288 427.49 263.624 427.162C263.968 426.826 264.408 426.658 264.944 426.658C265.48 426.658 265.916 426.826 266.252 427.162C266.596 427.49 266.768 427.946 266.768 428.53C266.768 429.114 266.596 429.574 266.252 429.91C265.916 430.246 265.48 430.414 264.944 430.414C264.408 430.414 263.968 430.246 263.624 429.91C263.288 429.574 263.12 429.114 263.12 428.53ZM270.44 426.814L265.652 435.166H264.308L269.096 426.814H270.44ZM264.944 427.486C264.44 427.486 264.188 427.834 264.188 428.53C264.188 429.234 264.44 429.586 264.944 429.586C265.184 429.586 265.368 429.502 265.496 429.334C265.632 429.158 265.7 428.89 265.7 428.53C265.7 427.834 265.448 427.486 264.944 427.486ZM268.004 433.438C268.004 432.854 268.172 432.398 268.508 432.07C268.852 431.734 269.292 431.566 269.828 431.566C270.356 431.566 270.788 431.734 271.124 432.07C271.468 432.398 271.64 432.854 271.64 433.438C271.64 434.022 271.468 434.482 271.124 434.818C270.788 435.154 270.356 435.322 269.828 435.322C269.292 435.322 268.852 435.154 268.508 434.818C268.172 434.482 268.004 434.022 268.004 433.438ZM269.816 432.394C269.312 432.394 269.06 432.742 269.06 433.438C269.06 434.134 269.312 434.482 269.816 434.482C270.32 434.482 270.572 434.134 270.572 433.438C270.572 432.742 270.32 432.394 269.816 432.394Z" fill="#4C40F7"/>
</g>
<path d="M259.617 86.9076L307.484 67.87L302.595 82.3694L272.547 86.5358L300.791 87.7226L300.786 87.7364L300.793 87.7202L310.41 95.495L298.051 95.8506L294.578 106.151L259.617 86.9076Z" fill="#ECECEC"/>
<path d="M369.218 129.781C361.562 119.893 351.771 111.829 340.917 106.494C331.672 101.926 321.304 99.1978 310.718 98.4835L311.833 94.5449C322.787 95.4256 333.215 98.2331 342.686 102.886C354.083 108.5 364.346 116.946 372.385 127.316C380.423 137.685 386.012 149.748 388.585 162.202C389.314 165.708 389.791 169.225 390.04 172.741C404.535 183.756 415.662 198.237 425.53 212.403C427.937 215.845 430.336 219.388 432.648 222.803C441.13 235.269 449.89 248.147 460.348 259.201C472.148 271.673 486.699 282.123 502.432 289.421C518.605 296.926 535.483 301.061 552.605 301.696C559.631 301.942 566.679 301.593 573.582 300.662L572.401 304.832C565.751 305.605 559.13 305.909 552.458 305.66C542.027 305.28 531.664 303.632 521.523 300.761C514.494 298.771 507.551 296.182 500.746 293.031C484.573 285.526 469.591 274.768 457.44 261.926C446.775 250.647 437.908 237.636 429.357 225.046C427.046 221.632 424.641 218.108 422.248 214.691C413.159 201.658 403.035 188.394 390.217 177.979C390.239 191.309 386.784 204.027 380.123 214.364C375.191 222.037 368.323 228.414 360.272 232.817C351.925 237.385 342.865 239.489 334.054 238.883C325.034 238.28 316.156 234.542 309.012 228.41C301.691 222.104 296.964 213.813 295.666 205.061C294.231 195.4 296.931 185.207 303.269 176.376C309.263 168.029 318.159 161.52 327.703 158.515C336.947 155.612 346.985 155.258 357.48 157.462C366.98 159.446 376.545 163.545 385.144 169.3C385.333 169.437 385.528 169.554 385.718 169.691C385.471 167.484 385.104 165.263 384.65 163.059C382.209 151.161 376.874 139.669 369.218 129.781ZM382.944 172.599C374.763 167.129 365.676 163.248 356.667 161.362C346.835 159.304 337.491 159.626 328.907 162.322C320.185 165.061 312.023 171.031 306.535 178.691C300.809 186.678 298.359 195.842 299.632 204.462C301.977 220.358 317.237 233.727 334.352 234.9C342.39 235.453 350.699 233.51 358.38 229.314C365.846 225.222 372.204 219.323 376.789 212.217C383.551 201.742 386.784 188.566 386.163 174.86C385.103 174.061 384.026 173.321 382.944 172.599Z" fill="#ECECEC"/>
<defs>
<filter id="filter0_d_0_1" x="253.131" y="232.318" width="115.751" height="115.751" filterUnits="userSpaceOnUse" color-interpolation-filters="sRGB">
<feFlood flood-opacity="0" result="BackgroundImageFix"/>
<feColorMatrix in="SourceAlpha" type="matrix" values="0 0 0 0 0 0 0 0 0 0 0 0 0 0 0 0 0 0 127 0" result="hardAlpha"/>
<feOffset dy="15"/>
<feGaussianBlur stdDeviation="15"/>
<feColorMatrix type="matrix" values="0 0 0 0 0.541176 0 0 0 0 0.584314 0 0 0 0 0.619608 0 0 0 0.2 0"/>
<feBlend mode="normal" in2="BackgroundImageFix" result="effect1_dropShadow_0_1"/>
<feBlend mode="normal" in="SourceGraphic" in2="effect1_dropShadow_0_1" result="shape"/>
</filter>
<filter id="filter1_d_0_1" x="358.657" y="307.26" width="115.751" height="115.751" filterUnits="userSpaceOnUse" color-interpolation-filters="sRGB">
<feFlood flood-opacity="0" result="BackgroundImageFix"/>
<feColorMatrix in="SourceAlpha" type="matrix" values="0 0 0 0 0 0 0 0 0 0 0 0 0 0 0 0 0 0 127 0" result="hardAlpha"/>
<feOffset dy="15"/>
<feGaussianBlur stdDeviation="15"/>
<feColorMatrix type="matrix" values="0 0 0 0 0.541176 0 0 0 0 0.584314 0 0 0 0 0.619608 0 0 0 0.2 0"/>
<feBlend mode="normal" in2="BackgroundImageFix" result="effect1_dropShadow_0_1"/>
<feBlend mode="normal" in="SourceGraphic" in2="effect1_dropShadow_0_1" result="shape"/>
</filter>
<filter id="filter2_d_0_1" x="201.811" y="387.905" width="115.751" height="115.751" filterUnits="userSpaceOnUse" color-interpolation-filters="sRGB">
<feFlood flood-opacity="0" result="BackgroundImageFix"/>
<feColorMatrix in="SourceAlpha" type="matrix" values="0 0 0 0 0 0 0 0 0 0 0 0 0 0 0 0 0 0 127 0" result="hardAlpha"/>
<feOffset dy="15"/>
<feGaussianBlur stdDeviation="15"/>
<feColorMatrix type="matrix" values="0 0 0 0 0.541176 0 0 0 0 0.584314 0 0 0 0 0.619608 0 0 0 0.2 0"/>
<feBlend mode="normal" in2="BackgroundImageFix" result="effect1_dropShadow_0_1"/>
<feBlend mode="normal" in="SourceGraphic" in2="effect1_dropShadow_0_1" result="shape"/>
</filter>
</defs>
</svg>
